<?xml version="1.0" standalone="no"?><!DOCTYPE svg PUBLIC "-//W3C//DTD SVG 1.1//EN" "http://www.w3.org/Graphics/SVG/1.1/DTD/svg11.dtd"><svg t="1583584510336" class="icon" viewBox="0 0 1024 1024" version="1.1" xmlns="http://www.w3.org/2000/svg" p-id="1600" xmlns:xlink="http://www.w3.org/1999/xlink" width="400" height="400"><defs><style type="text/css"></style></defs><path d="M784.459 647.294L624.802 806.951H399.009L239.352 647.294V421.501l159.657-159.657h225.793l159.657 159.657z" fill="#FDCCB9" p-id="1601"></path><path d="M839.312 508.014h-103.36V309.869H533.454V204.965h-39.771v104.904H290.734v198.155H172.091v55.385h118.643v200.823h202.949v93.402h39.771v-93.402h202.498V563.399h103.36v-55.385zM505.066 216.647h16.707v93.221h-16.707v-93.221z m16.706 629.294h-16.707v-81.719h16.707v81.719z m11.683-143.984V663.81h50.281v-49.268h40.122v87.405h-90.403z m-129.563 0v-87.405h39.059v49.268h50.742v38.147h-89.802z m50.943-182.26v-49.95h38.849v132.642h-38.849v-50.662h-50.943v-32.02h50.943z m50.231 82.691v-38.979h16.707v38.979h-16.707z m-50.231 12.164h118.292v37.585H454.835v-37.585z m50.231-62.826v-32.02h16.707v32.02h-16.707z m16.706-43.712h-16.707v-38.267h16.707v38.267z m-129.553 11.683v32.02h-89.792v-32.02h89.792z m180.907 82.691h-39.661V469.746h39.661v49.95h50.742v32.02h-50.742v50.672z m62.415-50.662v-32.02h88.729v32.02h-88.729z m88.729-43.712h-37.074v-38.267h37.074v38.267z m-48.757 0h-91.777v-38.267h51.805v-51.093h39.972v89.36z m-51.654-49.95h-40.122v-51.093h-50.281v-37.886h90.403v88.979z m-50.733-39.411v39.41H454.834v-39.41h118.292z m-79.432-49.569v37.886h-50.532v51.093h-39.26v-88.979h89.792z m-50.743 100.663v38.267h-90.704v-89.36h39.972v51.093h50.732z m-102.386 38.267h-38.147v-38.267h38.147v38.267z m-38.147 55.385h38.147v38.979h-38.147v-38.979z m49.829 0h90.704v38.979h-50.742v49.749h-39.972v-88.729z m283.294 38.989h-51.805v-38.979h91.777v88.729h-39.972v-49.749z m51.655-38.989h37.074v38.979h-37.074v-38.979z m37.074-241.848v102.738L619.677 321.551H724.27z m-121.27 0l121.27 119.114v17.409h-37.074v-51.093h-51.655v-49.579h-51.805v-35.861H603z m-29.874 0v35.861h-51.344v49.569h-16.707v-49.579h-50.431v-35.861h118.482z m-130.175 0v35.861h-50.742v49.569h-51.655v51.093h-38.147v-20.106l118.532-116.416h22.012z m-140.533 0h101.855l-101.855 100.04v-100.04zM183.775 551.726v-32.02h106.96v32.02h-106.96z m118.643 200.813v-100.05l101.855 100.05H302.418z m118.532 0L302.418 636.123v-21.57h38.147v49.268h51.655v49.82h50.742v38.909H420.95z m33.684 0V713.63h50.431v-49.82h16.707v49.82h51.344v38.909H454.634z m129.102 0V713.63h51.805v-49.82h51.655v-49.268h37.074v18.883L603 752.539h-19.264z m140.534 0H619.677L724.28 649.801v102.738z m103.36-200.813h-91.677v-32.02h91.677v32.02z" fill="#CC635E" p-id="1602"></path><path d="M628.642 252.809H395.358L230.406 417.771v233.284l164.952 164.952h233.284l164.952-164.952V417.771L628.642 252.809z m155.917 394.495L624.902 806.961H399.109L239.452 647.304V421.511l159.657-159.657h225.793l159.657 159.657v225.793z" fill="#294958" p-id="1603"></path><path d="M654.775 189.732h-285.54L167.329 391.638v285.54l201.906 201.906h285.54l201.906-201.906v-285.54L654.775 189.732zM809.95 657.824L635.421 832.363H388.589L214.05 657.824V410.992l174.539-174.529h246.832L809.96 411.002v246.822z" fill="#294958" p-id="1604"></path><path d="M635.421 236.463H388.589L214.05 410.992v246.832l174.539 174.539h246.832L809.96 657.824V410.992L635.421 236.463z m158.173 414.582L628.642 816.007H395.358L230.406 651.045V417.771l164.952-164.962h233.284l164.952 164.962v233.274z" fill="#294958" p-id="1605"></path><path d="M635.902 833.526H388.107L212.886 658.305V410.51l175.221-175.221h247.795L811.123 410.51v247.795L635.902 833.526zM389.07 831.19h245.859l173.857-173.847V411.474L634.929 237.627H389.07L215.223 411.474v245.869L389.07 831.19z m240.053-14.02H394.876L229.232 651.536V417.279l165.644-165.634h234.247l165.634 165.634v234.247L629.123 817.17z m-233.284-2.336H628.16l164.27-164.27V418.253l-164.27-164.27H395.839l-164.27 164.27v232.311l164.27 164.27z" fill="#263741" p-id="1606"></path><path d="M635.902 833.526H388.107l-174.88-174.88 1.655-1.645L389.07 831.189h245.869l174.188-174.188 1.655 1.645z" fill="#69787F" p-id="1607"></path></svg>