<?xml version="1.0" standalone="no"?><!DOCTYPE svg PUBLIC "-//W3C//DTD SVG 1.1//EN" "http://www.w3.org/Graphics/SVG/1.1/DTD/svg11.dtd"><svg t="1583575082573" class="icon" viewBox="0 0 1024 1024" version="1.1" xmlns="http://www.w3.org/2000/svg" p-id="4931" xmlns:xlink="http://www.w3.org/1999/xlink" width="200" height="200"><defs><style type="text/css"></style></defs><path d="M34.56 578.10176s110.28992-42.2912 116.57344-52.00512c6.2848-9.71264 29.14432-38.28864 45.7152-48.57472 16.57088-10.28608 45.71776-10.28608 65.71648-24 20-13.71648 130.28864-137.1456 130.28864-137.1456s17.71392 24.00128 38.85824 34.28864c21.14304 10.28608 95.42912 60.57088 120.00256 72.57216 24.57344 11.99872 42.85696 34.85952 42.85696 34.85952l39.4304 0.57088 50.85824-45.1456s38.85696 32.57088 61.7152 53.71392c22.8608 21.1456 37.72032 37.14688 52.57472 43.4304 14.85696 6.28608 54.85824 25.71648 54.85824 25.71648s-6.28352 8.57472 31.43168 23.42912c37.71392 14.85952 104 45.7152 104 45.7152s-18.85696-0.57344-33.14432-4.00256c-14.28608-3.4304-147.4368-52.5696-153.14944-49.14048-5.71008 3.42912 10.85952 45.14304 10.85952 45.14304s-43.4304-42.85952-54.85824-49.1456c-11.42784-6.28096-25.71136-51.4304-44.00128-62.28736-18.28736-10.8544-34.28608-18.85824-38.28608-17.14304-4.00384 1.7152-30.85568 34.85568-30.28608 39.4304 0.56832 4.57344 0 24.57216-1.7152 26.28736-1.7152 1.7152-69.71776 56.57344-69.71776 56.57344s36.00384-47.4304 38.85952-65.14432c2.85696-17.71648 0.57088-23.42912-9.7152-22.28736-10.28608 1.14176-18.85824 1.7152-18.85824 1.7152s1.71776-18.8608-10.85696-29.71776c-12.57216-10.8544-52.5696-34.28608-58.2848-39.42656-5.71776-5.14432-14.85952-9.14176-14.85952-9.14176l32.57088 51.43168s-27.42912-4.00384-45.71264-17.71648c-18.28736-13.7152-61.71776-66.28608-66.85952-61.14432-5.14304 5.14176-3.43168 23.99872-0.57344 33.7152 2.85952 9.71264 17.14304 32.57344 17.14304 34.85952 0 2.28224-18.85696 33.14176-13.1392 48.5696 5.7152 15.42784 7.42656 38.28864 7.42656 38.28864s-17.14176-20.57472-20.57088-21.1456c-3.42784-0.56832 5.71264-43.99872-0.57216-59.42912-6.2848-15.42784-19.42912-26.85568-19.42912-26.85568l-3.99744-58.8608s-14.85952-0.57088-22.85952 19.99872c-7.99872 20.57216-26.85952 52.57216-28.00256 60.00256-1.14176 7.4304-5.7152 42.28608-8.57216 45.1456-2.85568 2.85952-36.56576 18.2848-46.28224 24-9.71648 5.7152-25.14688 13.71648-25.14688 13.71648s33.14176-31.42656 37.7152-33.7152c4.57344-2.28608-0.57216-28 0-38.28608 0.57216-10.28608 1.1456-14.85696 1.1456-14.85696s-30.28992 34.28224-35.43296 35.42656c-5.14304 1.14688-40.00256-13.50272-53.14304-3.89376-13.14304 9.61152-30.2848 43.32416-34.28736 45.04192-4.00128 1.7152-84.57344 35.42784-104.57472 38.85696C48.27392 583.8144 34.56 578.10176 34.56 578.10176z" fill="#6EAF31" p-id="4932"></path></svg>